<?xml version="1.0" encoding="utf-8"?>
<!-- Generator: Adobe Illustrator 20.1.0, SVG Export Plug-In . SVG Version: 6.00 Build 0)  -->
<svg version="1.1" id="Layer_1" xmlns="http://www.w3.org/2000/svg" xmlns:xlink="http://www.w3.org/1999/xlink" x="0px" y="0px"
	 viewBox="0 0 274 274" style="enable-background:new 0 0 274 274;" xml:space="preserve">
<style type="text/css">
	.st0{opacity:0.2;fill:#FAA41A;enable-background:new    ;}
	.st1{fill:#060606;}
	.st2{font-family:'MyriadPro-Regular';}
	.st3{font-size:37.5112px;}
</style>
<g>
	<g>
		<g>
			<ellipse class="st0" cx="136.4" cy="111.9" rx="75.1" ry="75.1"/>
			<path d="M137,33.5C93.1,33.5,57.5,69,57.5,113s35.6,79.5,79.5,79.5s79.5-35.6,79.5-79.5S180.9,33.5,137,33.5z M137,186.1
				c-40.4,0-73.1-32.7-73.1-73.1S96.6,39.8,137,39.8s73.1,32.7,73.1,73.1S177.4,186.1,137,186.1z"/>
		</g>
		<path class="st1" d="M124.6,159.2c-0.1,0-0.2,0-0.3,0c0.1-0.2-0.1-0.3-0.3-0.4c-5.8-3.7-10.2-8.7-13.6-14.6
			c-3.9-6.9-7.1-14.1-9.8-21.4C95.9,110,88.2,99.5,77.5,91.1c-1.7-1.4-3.4-2.9-5.5-3.8c0-0.2,0-0.4,0-0.5c2.3-0.4,4.4-1.4,6.6-2.1
			c7-2.4,14-4.8,21.3-7.3c-0.8-0.5-1.5-0.9-2.1-1.3c-0.7-0.4-1.4-0.9-2.1-1.3c0.2-0.2,0.3-0.3,0.4-0.4c9.4-6.6,19.8-8.1,30.9-6.5
			c1.1,0.2,2.1,0.6,3.2,0.3c6.1-1.6,12.3-1.8,18.6-1.3c1.5,0.1,3.1,0.7,4.6,0.5c4.3-0.6,8.6-0.7,12.9-0.1c4.8,0.6,9.4,2,13.4,5
			c3.4,2.6,5.7,6.2,8,9.8c0.3,0.5,0.9,0.9,0.7,1.5c-0.2,0.5-0.8,0.7-1.4,1c2.1,0.9,4,2.1,5.7,3.5c3.8,3.3,6.7,7.4,9.3,11.7
			c0.4,0.6,0.2,0.9-0.3,1.3c-1.4,1.3-2.7,2.7-4.1,4.1c-1.1,1.1-2.1,2.2-2.7,3.7c-0.9,2-2.4,3.6-4.2,5c-0.6,0.5-1.2,1-1.6,1.7
			c-2.8,4.2-6.4,7.5-11,9.7c-1.6,0.8-3.3,1.4-5.3,1.8c0.4-0.5,0.6-0.9,0.9-1.2c2.1-3,3.8-6.2,4.1-10c0.1-0.7-0.2-1.1-0.8-1.5
			c-2.3-1.2-4.5-2.4-6.8-3.5c-3-1.5-6.2-1.8-9.5-1.1c-5.3,1.3-9.4,4.2-12.2,8.9c-0.2,0.3-0.7,0.8,0.1,1.1c2.4,0.9,3.3,3,4,5.2
			c0.6,2.3,0.4,4.7,0.8,7.1c0.5,2.9,1.3,5.6,3.5,7.8c0.5,0.5,1,0.6,1.8,0.4c3.5-1,6.7-2.6,9.8-4.4c2.6-1.6,5.1-3.4,7.8-5.5
			c-1.4,4.6-3.3,8.6-6,12.4c1.9-0.3,3.7-0.5,5.7-0.8c-0.3,0.3-0.4,0.5-0.6,0.6c-3.6,3.5-7.4,6.6-11.8,9.1c-5.8,3.3-12,5-18.7,3.5
			c-2.6-0.6-5-1.6-7.4-3.1c1.6-0.2,2.9-0.2,4.2-0.7c0.9-0.4,1.5-1,0.7-1.9c-2.2-2.7-6.2-5.2-10.5-3.1c-2.1,1-3.7,2.6-5.2,4.3
			C124.4,153.2,123.3,155.9,124.6,159.2z M143.9,72.4c0,0-0.1-0.1-0.1-0.1c1.5-1.2,3.4-1.7,5.2-3c-5.3-0.8-10.3-0.4-15.4,0.4
			c2.7,1.3,4.6,3.5,6.6,5.6c0.4,0.4,0.8,0.2,1.2,0c7.1-2.6,14.4-3.7,22-2.9c4,0.4,7.9,1.2,11.1,3.9c1.4,1.2,2.9,2.3,4.2,3.6
			c1.6,1.6,3.5,2.5,5.9,2.5c-0.1-0.3-0.1-0.5-0.2-0.7c-2.9-5.1-7.1-8.7-12.6-10.8c-6.6-2.5-13.4-2.1-20.1-0.6
			C149.2,70.9,146.6,71.7,143.9,72.4z M106.8,78.7c0.1,0.1,0.1,0.2,0.3,0c0,0-0.1-0.1-0.1-0.2c-0.4-0.9-1.2-1.6-1.8-2.4
			c-0.4-0.5-0.5-0.9,0.4-1c1.5-0.2,3-0.5,4.6-0.4c4.5,0.2,8.6,1.3,12.4,3.7c3.1,2,6.5,3.4,10.3,2.8c1.7-0.3,3.4-0.9,4.1-2.7
			c0.6-1.7-0.6-2.9-1.6-4.1c-1.5-1.6-3.4-2.6-5.5-3.3c-6.3-2.2-12.7-2-19.1-0.6c-3.6,0.8-7,2.2-10.4,4.2
			C102.6,76.2,104.7,77.4,106.8,78.7z M176.5,96.9c-2.9-1.2-5.7-2.4-8.8-2.9c-4.3-0.7-8.7-0.5-13,0c1.4,0.2,2.7,0.2,4.1,0.4
			c4.9,0.5,9.6,1.8,13.8,4.5c2.3,1.5,4.5,3.2,6,5.6l-0.1,0.1c-0.3-0.1-0.7-0.2-1-0.4c-5.5-2.3-11.1-3.7-17.1-2.3
			c-4.6,1.1-8.3,3.5-11,7.4c0,0-0.1,0-0.1,0c0,0,0,0.1,0,0.1c0,0,0.1-0.1,0.1-0.1c0.9,0.2,1.6-0.6,2.7-0.4c-1.9,1.8-3.6,3.5-4.6,5.9
			c-0.1,0.1-0.4,0.3-0.3,0.5c0.2,0.2,0.3-0.2,0.4-0.3c0.8-0.8,1.5-1.6,2.3-2.3c2.8-2.5,5.6-5,9.5-5.6c0.9-0.1,1.8-0.1,2.7-0.2
			c-1.6-1-3.3-1.1-5.1-0.8c0.3-0.2,0.5-0.3,0.8-0.4c3.5-1,6.8-0.2,10,1c2.9,1,5.6,2.5,8.3,3.9c4.2,2.3,8.6,3.2,13,0.8
			c3.7-2,5.9-4.4,3.5-9.1c-0.5-0.9-0.9-2-1.3-3.1c0.8,0.2,1.2,0.6,1.6,1c0.4,0.4,0.7,1,1.5,1.4c-2.4-5.3-6.8-8-11.3-10.6
			c4.6,0.7,9,2.1,12.9,4.8c0,0.1,0.1,0.2,0.1,0.2c0.2-0.1,0-0.2-0.1-0.2c0-0.5-0.4-0.8-0.7-1.1c-2.5-2.9-5.5-5.2-8.9-7
			c-1.1-0.6-2.4-0.8-3.7-0.9c-4.6-0.3-8.6,1.3-12.6,3.2c-0.6,0.3-1.5,0.4-1.6,1c0,0.7,1,0.7,1.5,1c2.3,1.3,4.7,2.6,6.3,4.8
			C176.6,96.9,176.6,96.9,176.5,96.9z M124.2,122.7c-3.9-3.2-7.3-6.7-10.4-10.6c-3.3-4.2-6.4-8.5-7.3-14c-0.9-5.3,1.6-9.5,7.2-10
			c1.3-0.1,2.6-0.1,4.2-0.3c-1.4-0.8-2.5-1.5-3.6-2.1c-4.6-2.6-9.5-4-14.8-3.3c-5.4,0.7-10.5,2.3-15.6,4.3c-1.1,0.5-2.4,0.8-3.5,1.5
			c0.3,0.2,0.5,0.4,0.7,0.5c6.8,4.1,12.5,9.4,17.3,15.7c5.2,6.8,11.3,12.5,19.4,15.8C119.9,121,122,122,124.2,122.7z M146.5,95
			c-0.7-0.2-1-0.3-1.3-0.4c-0.7-0.2-1.3-0.6-1.4-1.4c-0.1-0.8,0.2-1.5,0.9-1.9c0.4-0.3,0.9-0.6,1.4-0.8c1.9-0.8,4-1.1,6-1.2
			c2.6-0.1,5.2-0.1,7.8,0.2c-0.7-0.4-1.4-0.6-2.2-0.9c-6.4-1.8-12.9-3-19.5-1.2c-1.4,0.4-2.8,0.9-4,1.6c-2,1.3-2,3.2,0,4.6
			c0.7,0.5,1.5,0.8,2.3,0.9C139.8,95.2,143,95.4,146.5,95z M155.7,152c4.6-1.1,8.8-2.9,12.6-6.3c-4.2,0.2-8,0.3-11.6-1.3
			c-3.5-1.5-6.2-4.1-8.9-6.8c0.4,1.2,0.9,2.2,1.5,3.2c2.3,3.7,5.8,5.8,9.8,7.2c1.3,0.5,1.3,0.5,0.2,1.5
			C158.2,150.4,156.9,151.1,155.7,152z M155.4,80.8c2.5,2.2,4.9,4.1,7.5,5.9c0.3,0.2,0.6,0.2,0.9,0.1c1.2-0.2,2.3-0.5,3.5-0.7
			c1-0.2,0.8-0.5,0.2-1c-2-1.8-4.4-2.7-6.8-3.5C159,81,157.3,80.6,155.4,80.8z M176.4,83.6c-1.4,0-2.5,0-3.5,0c-0.4,0-0.9,0-1.2-0.3
			c-3.7-3.1-8-4.5-12.7-4.9c-2.3-0.2-4.6-0.4-6.9,0.3c1.6,0,3.2,0.1,4.9,0.4c4.7,0.7,9.2,1.7,12.5,5.4c0.6,0.7,1.4,1.1,2.4,0.7
			C173.3,84.7,174.7,84.3,176.4,83.6z M186.1,115.9c-2.3,0-4.2,0.2-6.2-0.1c-0.5-0.1-0.5,0.3-0.5,0.6c-0.3,2.4-1,4.7-2.1,7.1
			C180.9,121.5,183.6,119.1,186.1,115.9z M160.2,141.7c2.3,0.9,4.5,1.2,6.7,1.1c0.2,0,0.3-0.1,0.4-0.2c1.8-2,3.4-4.3,4.6-7.1
			C168.3,138.4,164.6,140.3,160.2,141.7z"/>
	</g>
	<text transform="matrix(1 0 0 1 97.5945 231.1689)" class="st2 st3">P H S</text>
</g>
</svg>
